<?xml version="1.0" encoding="UTF-8" standalone="no"?>
<!-- Created with Inkscape (http://www.inkscape.org/) -->

<svg
   xmlns:dc="http://purl.org/dc/elements/1.1/"
   xmlns:cc="http://creativecommons.org/ns#"
   xmlns:rdf="http://www.w3.org/1999/02/22-rdf-syntax-ns#"
   xmlns:svg="http://www.w3.org/2000/svg"
   xmlns="http://www.w3.org/2000/svg"
   xmlns:sodipodi="http://sodipodi.sourceforge.net/DTD/sodipodi-0.dtd"
   xmlns:inkscape="http://www.inkscape.org/namespaces/inkscape"
   id="svg5151"
   version="1.1"
   inkscape:version="0.48.2 r9819"
   width="140"
   height="70"
   sodipodi:docname="img09.png">
  <metadata
     id="metadata5157">
    <rdf:RDF>
      <cc:Work
         rdf:about="">
        <dc:format>image/svg+xml</dc:format>
        <dc:type
           rdf:resource="http://purl.org/dc/dcmitype/StillImage" />
        <dc:title></dc:title>
      </cc:Work>
    </rdf:RDF>
  </metadata>
  <defs
     id="defs5155" />
  <sodipodi:namedview
     pagecolor="#ffffff"
     bordercolor="#666666"
     borderopacity="1"
     objecttolerance="10"
     gridtolerance="10"
     guidetolerance="10"
     inkscape:pageopacity="0"
     inkscape:pageshadow="2"
     inkscape:window-width="1920"
     inkscape:window-height="1058"
     id="namedview5153"
     showgrid="false"
     inkscape:zoom="7.6129032"
     inkscape:cx="44.792373"
     inkscape:cy="31.262712"
     inkscape:window-x="1440"
     inkscape:window-y="0"
     inkscape:window-maximized="0"
     inkscape:current-layer="svg5151" />
  <rect
     style="fill:#5200f7;fill-opacity:1"
     id="rect5196"
     width="141.99576"
     height="71.588982"
     x="-1.1822034"
     y="-1.1949153" />
  <path
     style="fill:#d13fea;fill-opacity:1;"
     id="path5161"
     d="m 10.404518,52.323022 c 0.116282,-0.161619 0.22415,-0.329637 0.348845,-0.484857 0.624902,-0.777874 1.194741,-1.373603 1.911686,-2.101628 1.310362,-1.330612 2.691323,-2.570601 4.097066,-3.798101 0.900735,-0.728491 1.749286,-1.533362 2.695675,-2.205555 0.87037,-0.618199 2.533669,-1.533897 3.198397,-1.878569 0.285743,-0.148162 0.59899,-0.235828 0.898484,-0.353742 0.308495,-0.09733 0.612868,-0.20884 0.925483,-0.291987 0.93608,-0.248969 1.501952,-0.320526 2.491066,-0.441315 1.417405,-0.173092 2.837814,-0.271268 4.262749,-0.351677 2.099538,-0.115372 4.202376,-0.129511 6.304457,-0.132683 0.96336,0.01566 1.934968,0.03771 2.887594,0.199932 1.740826,0.296447 3.431587,0.822912 5.122538,1.317667 2.471947,0.779196 4.945994,1.553288 7.396877,2.397263 1.136602,0.391395 2.265281,0.805512 3.401213,1.19885 3.498362,1.211376 3.705422,1.260536 7.196484,2.395447 3.529349,1.048776 7.111486,2.009034 10.770715,2.488083 1.243784,0.16283 2.494653,0.297272 3.748593,0.331169 2.976354,0.08046 5.212332,-0.219952 8.161221,-0.49882 4.035848,-0.542016 8.003204,-1.490839 11.882591,-2.71888 2.085858,-0.660293 4.095058,-1.388473 6.075188,-2.320936 0.91785,-0.432226 1.79868,-0.939035 2.69803,-1.408553 3.84539,-2.191357 7.11549,-5.201057 10.35696,-8.176319 0.5084,-0.477695 1.01892,-0.953139 1.5252,-1.433084 0.44074,-0.41782 0.87223,-0.845392 1.31582,-1.260182 1.43288,-1.339841 2.90532,-2.640198 4.3629,-3.953127 1.05935,-0.958838 0.55928,-0.493311 1.50347,-1.393066 0,0 1.70551,-0.701158 1.70551,-0.701158 l 0,0 c -0.97062,0.916247 -0.45782,0.4437 -1.54161,1.414156 -2.46794,2.204257 -4.9402,4.403292 -7.32797,6.695 -1.75168,1.604949 -3.49362,3.227927 -5.34733,4.716496 -2.42051,1.943725 -5.01342,3.638767 -7.77232,5.069698 -0.89961,0.464305 -1.7807,0.966425 -2.69884,1.392915 -1.98476,0.921946 -3.919478,1.603039 -6.011368,2.248932 -3.882004,1.198607 -7.847254,2.128463 -11.875025,2.679066 -2.770431,0.250878 -5.413888,0.568696 -8.205547,0.498717 -1.259927,-0.03158 -2.516672,-0.169372 -3.76617,-0.33421 -3.662126,-0.48312 -7.244991,-1.456144 -10.776045,-2.509822 -6.046743,-1.988956 -12.069353,-4.057841 -18.175399,-5.860632 -1.333097,-0.366784 -2.406,-0.687924 -3.748983,-0.964461 -1.435346,-0.295555 -2.895482,-0.433338 -4.360229,-0.423184 -2.08214,-0.0014 -4.165145,0.0027 -6.245425,0.102406 -2.586137,0.152611 -5.229084,0.284031 -7.689055,1.167139 -0.296716,0.12425 -0.63812,0.572654 -0.890148,0.372752 -0.234512,-0.186008 0.991743,-0.666605 0.762854,-0.473718 -0.242994,0.204774 -0.543999,0.329323 -0.805591,0.509733 -0.983716,0.678431 -1.870334,1.491629 -2.801703,2.236231 -1.41194,1.215238 -2.798358,2.439585 -4.096312,3.778492 -0.647225,0.667646 -1.224326,1.292817 -1.787295,2.020581 -0.112765,0.145774 -0.208286,0.304107 -0.31243,0.45616 0,0 -1.772871,0.783381 -1.772871,0.783381 z"
     inkscape:connector-curvature="0" />
  <path
     style="fill:#d13fea;fill-opacity:1;"
     id="path5163"
     d="m 9.143825,46.988018 c 0.996075,-1.869258 1.695652,-3.879404 2.462956,-5.849082 0.243832,-0.616032 0.77457,-2.004277 1.080193,-2.579988 0.51148,-0.963493 1.184929,-1.917696 1.943268,-2.702143 1.147439,-1.186945 1.732435,-1.486007 3.104769,-2.433987 1.244719,-0.618081 2.449184,-1.324908 3.734157,-1.854243 1.621254,-0.667862 4.411095,-1.202693 6.075414,-1.462859 2.63666,-0.412161 4.616886,-0.557609 7.291241,-0.644507 1.177362,-0.03826 2.355882,-0.01994 3.533823,-0.02991 4.234182,0.05843 8.426531,0.584015 12.531757,1.626823 2.652814,0.673866 3.85851,1.126589 6.460207,1.990552 1.087983,0.421621 2.183553,0.824165 3.263948,1.264865 1.60404,0.654298 5.020378,2.167587 6.600516,2.867741 1.539375,0.682093 4.742829,2.121253 6.319466,2.798441 0.961473,0.412966 1.930778,0.807452 2.896167,1.211178 0.918384,0.336357 1.829321,0.693787 2.755151,1.009069 2.805715,0.95546 5.969166,1.859158 8.9515,1.935469 0.75373,0.01929 1.50712,-0.05012 2.26068,-0.07517 3.053076,-0.259976 6.036144,-1.069201 8.843754,-2.289122 1.746808,-0.758998 2.673568,-1.313256 4.358058,-2.229813 3.87407,-2.460475 7.65973,-5.053337 11.37149,-7.751487 2.85508,-2.196074 5.66555,-4.450021 8.60709,-6.531881 0.9755,-0.69041 1.97129,-1.351698 2.95694,-2.027547 0,0 1.38986,-0.546013 1.38986,-0.546013 l 0,0 c -0.97311,0.669179 -1.95663,1.323467 -2.91933,2.007537 -2.90659,2.065354 -5.66568,4.322184 -8.49546,6.488505 -2.73814,1.98962 -5.51455,3.921306 -8.34101,5.783893 -0.74208,0.489019 -1.47838,0.987466 -2.23489,1.453848 -1.19063,0.734006 -2.40362,1.431095 -3.60542,2.146642 -1.70803,0.92486 -2.625218,1.4735 -4.397238,2.234051 -2.81973,1.210229 -5.817789,1.998081 -8.878335,2.244765 -0.762746,0.02319 -1.525489,0.09263 -2.28824,0.06956 -3.027583,-0.09156 -6.056088,-1.030289 -8.888475,-2.03152 -0.918915,-0.324831 -1.82432,-0.686684 -2.736481,-1.030025 -0.957518,-0.410042 -1.91855,-0.811975 -2.872556,-1.230124 -5.369307,-2.353414 -10.655075,-4.917576 -16.170351,-6.922159 -2.812677,-0.925943 -3.609897,-1.247443 -6.480001,-1.957926 -4.083611,-1.01088 -8.264804,-1.551708 -12.471046,-1.62812 -1.168652,0.0063 -2.337948,-0.02045 -3.505955,0.01886 -2.578627,0.08678 -4.774573,0.267467 -7.317039,0.689566 -3.526082,0.585399 -2.917985,0.600431 -6.1438,1.560998 -0.288769,0.08599 -0.584479,0.146659 -0.876719,0.219989 -1.35096,0.917784 -1.947144,1.220898 -3.080968,2.372993 -0.753853,0.766002 -1.422552,1.693478 -1.928415,2.64189 -0.294404,0.551961 -0.841046,1.977497 -1.075196,2.568313 -0.742197,1.953356 -1.446109,3.924968 -2.324067,5.823105 0,0 -1.761413,0.778971 -1.761413,0.778971 z"
     inkscape:connector-curvature="0" />
  <path
     style="fill:#d13fea;fill-opacity:1;"
     id="path5165"
     d="m 7.677209,39.549908 c 0.10501,-2.222994 0.04077,-4.455317 0.223613,-6.674804 0.04509,-0.547284 0.121642,-1.091518 0.182463,-1.637277 0.078,-0.507765 0.112553,-1.024134 0.233997,-1.523293 0.244871,-1.006471 0.916305,-2.79225 1.321272,-3.73212 0.342591,-0.795105 1.323915,-2.840875 1.815662,-3.588811 0.356184,-0.541747 0.800684,-1.019967 1.201026,-1.529951 0.589746,-0.447022 1.124976,-0.976985 1.769238,-1.341066 1.263255,-0.713882 2.57863,-1.342199 3.927093,-1.878004 0.910505,-0.361784 1.870585,-0.591669 2.826697,-0.805578 2.123086,-0.474993 4.674876,-0.766423 6.835146,-0.933112 1.106224,-0.08536 2.216238,-0.11118 3.324357,-0.16677 1.128563,0.05257 2.261037,0.05014 3.385691,0.157717 1.183411,0.113201 2.359368,0.30055 3.530665,0.503876 2.507248,0.435235 4.288987,0.8836 6.723089,1.623114 1.061421,0.322475 2.118775,0.661588 3.158944,1.047143 1.034313,0.383384 2.040463,0.838843 3.060695,1.258265 5.336712,2.406564 10.308489,5.503439 15.252835,8.613718 3.338329,2.020312 6.851271,3.748164 10.454427,5.243092 2.427184,1.007024 3.70693,1.435015 6.171355,2.322428 4.821918,1.59043 9.793744,2.741569 14.844618,3.292885 0.80799,0.08819 1.6198,0.137035 2.429698,0.205552 1.85167,0.08401 3.74733,0.23276 5.57142,-0.214886 1.02692,-0.252015 2.77375,-0.943336 3.71597,-1.398087 0.64799,-0.312741 1.2661,-0.68394 1.89915,-1.02591 0.206,-0.17121 0.40518,-0.350975 0.618,-0.513629 0.71798,-0.548741 1.46179,-1.06345 2.17371,-1.620028 1.70307,-1.331454 2.59281,-2.153885 4.22982,-3.57475 4.52566,-3.928101 0.51428,-0.423316 5.25234,-4.57464 2.61005,-2.323136 5.1094,-4.768914 7.49236,-7.324179 1.17759,-1.262735 2.12246,-2.319977 3.17006,-3.673088 0.41595,-0.537253 0.80033,-1.098218 1.2005,-1.647328 1.77847,-2.551605 3.08919,-5.375571 4.18176,-8.2758412 0.20312,-0.5385388 0.38339,-1.0838922 0.59741,-1.6181036 0,0 1.73908,-0.7988224 1.73908,-0.7988224 l 0,0 c -0.24768,0.5379331 -0.44497,1.0936295 -0.66697,1.642764 -1.16697,2.9183962 -2.51172,5.7775172 -4.29495,8.3770312 -0.4072,0.555677 -0.7969,1.124612 -1.2216,1.667031 -1.09004,1.39219 -2.04985,2.434252 -3.27774,3.731895 -2.41471,2.551877 -4.93002,5.007837 -7.54161,7.358042 -3.1086,2.744449 -2.15353,1.906412 -5.15218,4.534504 -3.08122,2.700461 -6.18007,5.400591 -9.8088,7.362268 -0.6416,0.341961 -1.26824,0.713615 -1.92481,1.025885 -0.96096,0.457041 -2.7327,1.144013 -3.7751,1.388745 -1.8106,0.425088 -3.6876,0.238061 -5.517778,0.126262 -0.80121,-0.07765 -1.60438,-0.137168 -2.40362,-0.232948 -5.035592,-0.60346 -9.987938,-1.774498 -14.801393,-3.363185 -2.182018,-0.792751 -4.034748,-1.440326 -6.184934,-2.325416 -0.986685,-0.406153 -1.96139,-0.841131 -2.934022,-1.279872 -2.605237,-1.175189 -5.172477,-2.43806 -7.612699,-3.931422 -1.415485,-0.896065 -2.819242,-1.810673 -4.239699,-2.698834 -3.51364,-2.196952 -7.12929,-4.24049 -10.906844,-5.951787 -1.017756,-0.416927 -2.022353,-0.867544 -3.053268,-1.250782 -1.034306,-0.384498 -2.083357,-0.730043 -3.139054,-1.051185 -3.33215,-1.013638 -6.767023,-1.783339 -10.241809,-2.093673 -1.124958,-0.100471 -2.256931,-0.09364 -3.385397,-0.140453 -1.09908,0.05242 -2.200293,0.07107 -3.297241,0.157272 -2.281844,0.179308 -4.647417,0.475831 -6.87963,1.000999 -0.959948,0.225845 -1.887509,0.572694 -2.837308,0.838001 -0.366602,0.102402 -0.776121,0.08346 -1.110775,0.264814 -0.637643,0.345552 -1.169246,0.858396 -1.753869,1.287594 -0.405032,0.501459 -0.855181,0.969612 -1.215096,1.504377 -0.365047,0.54239 -0.65348,1.133202 -0.951678,1.715032 -0.876268,1.709732 -1.709013,3.65486 -2.160104,5.527988 C 9.781,29.438485 9.734955,29.95343 9.651736,30.460862 9.588986,31.0038 9.510245,31.545127 9.463496,32.089676 9.275657,34.277691 9.33331,36.480811 9.399066,38.67258 c 0,0 -1.721854,0.877328 -1.721854,0.877328 z"
     inkscape:connector-curvature="0" />
  <path
     style="fill:#d13fea;fill-opacity:1;"
     id="path5167"
     d="M 3.9204181,34.095448 C 3.8387797,33.882295 3.7591167,33.668375 3.6755027,33.45599 3.4755532,32.948103 3.1043466,32.052876 2.9248293,31.554494 2.4496413,30.235263 2.0676344,28.889983 1.6965535,27.538889 1.0369766,24.701508 0.66811863,21.80404 0.47337823,18.900109 0.41869343,17.555351 0.50340373,16.381225 1.0609898,15.130551 1.4865215,14.176077 1.8813822,13.652155 2.4571733,12.768585 3.5913192,11.159267 4.9905025,9.754398 6.635821,8.666197 7.779422,7.909828 10.082784,6.745252 11.013762,6.250236 16.212716,4.2947293 21.789707,3.8536527 27.280015,3.4305226 c 0.988209,-0.033747 1.975959,-0.085977 2.964626,-0.1012405 0.948713,-0.014646 1.898378,-0.026148 2.846455,0.011529 4.243629,0.1686461 8.448564,0.853945 12.62836,1.5602674 2.402685,0.4261274 4.751095,0.9408484 7.074171,1.6924453 0.710807,0.22997 1.422821,0.460396 2.115243,0.740902 2.072176,0.839456 3.594718,1.712469 5.618963,2.7711652 6.274818,3.232914 12.308239,6.906113 18.527833,10.241121 1.153966,0.618768 2.321353,1.212174 3.48203,1.818262 1.152755,0.533061 2.292595,1.094991 3.458266,1.599184 1.100785,0.476127 2.216641,0.917693 3.33887,1.340808 1.764712,0.665352 3.888681,1.384273 5.738302,1.819712 2.241988,0.52781 3.013188,0.537856 5.275206,0.775016 0.797,0.0293 1.5935,0.08042 2.39101,0.08791 0.72959,0.0069 1.45932,-0.01674 2.1884,-0.04486 1.58184,-0.06102 3.168,-0.191601 4.7205,-0.513742 0.36246,-0.07521 0.71877,-0.177504 1.07815,-0.266255 0.91697,-0.295403 0.94202,-0.273612 1.80593,-0.666968 0.26304,-0.119771 0.98733,-0.582732 0.77739,-0.384078 -0.25223,0.238662 -0.57943,0.399596 -0.90909,0.508689 -0.25159,0.08326 0.44999,-0.280322 0.66917,-0.429295 0.22983,-0.156209 0.45159,-0.323961 0.67738,-0.485942 1.39571,-1.007 2.68244,-2.15157 3.9989,-3.257147 0.63174,-0.543618 1.28875,-1.069243 1.85074,-1.687384 0.46578,-0.578132 0.88388,-1.191546 1.33745,-1.77912 1.09675,-1.340925 2.29463,-2.593154 3.41636,-3.912547 0.87077,-0.95388 1.62402,-2.000396 2.40201,-3.027887 0.65362,-0.84823 1.30933,-1.694765 1.97391,-2.5346672 0,0 1.71021,-0.732418 1.71021,-0.732418 l 0,0 c -0.65202,0.835357 -1.28874,1.6823822 -1.94058,2.5173012 -0.79218,1.033099 -1.54941,2.093289 -2.43391,3.052712 -1.11819,1.307917 -2.30526,2.55516 -3.39051,3.891362 -0.4457,0.580434 -0.84956,1.189062 -1.28994,1.773422 -0.56263,0.648762 -1.24833,1.178279 -1.89676,1.737395 -1.33049,1.098655 -2.61803,2.251919 -4.00955,3.274582 -1.88168,1.387519 -3.92935,2.62654 -6.19857,3.247431 -0.35524,0.08033 -0.7077,0.174137 -1.06572,0.240998 -1.52925,0.285588 -3.0874,0.382797 -4.6399,0.422198 -0.72378,0.01837 -1.44807,0.03593 -2.17194,0.02111 -0.79171,-0.0162 -1.581928,-0.07609 -2.372898,-0.114131 C 96.803672,28.387848 95.96114,28.364016 93.762105,27.821976 91.855923,27.352125 89.919308,26.645259 88.097001,25.933302 84.767732,24.632589 84.626266,24.499314 81.328955,22.956805 80.173416,22.345983 79.009431,21.750876 77.862338,21.124338 76.672191,20.474285 75.499322,19.793084 74.317861,19.127374 69.345602,16.325686 64.383069,13.499127 59.290537,10.919402 57.160214,9.893221 55.662471,9.112299 53.524379,8.270522 50.59262,7.116275 47.508924,6.410926 44.424974,5.8080476 43.474386,5.6391227 42.526291,5.4555137 41.573211,5.3012729 39.539706,4.9721829 37.129072,4.6378877 35.081513,4.464378 32.917979,4.2810405 31.126107,4.2291054 28.973931,4.2590078 c -0.982548,0.013652 -1.964238,0.064177 -2.946357,0.096265 -1.025239,0.078979 -2.0518,0.1423511 -3.075717,0.2369379 -4.517955,0.4173569 -9.067262,1.0624463 -13.307244,2.7512445 0.169021,-0.657004 0.10987,-0.284762 -1.362435,0.670088 -1.228193,0.796534 -2.3478102,1.77442 -3.298623,2.8868638 -0.3167126,0.370552 -0.5988674,0.769298 -0.8983011,1.153946 -0.5757372,0.880713 -0.938756,1.355807 -1.3662327,2.302071 -0.5309127,1.175232 -0.6568314,2.432476 -0.6268107,3.707548 0.1266854,2.902188 0.4609827,5.802901 1.1662755,8.625538 0.1268574,0.460894 0.244968,0.924284 0.3805721,1.38268 0.5162016,1.744968 1.1645614,3.452474 1.9723135,5.083801 0,0 -1.6909535,0.939457 -1.6909535,0.939457 z"
     inkscape:connector-curvature="0" />
  <path
     style="fill:#000000;fill-opacity:1;"
     id="path5171"
     d="m 6.156128,35.405845 c 0.08295,0.199019 0.152027,0.404403 0.248844,0.597056 0.578425,1.150992 1.092302,1.996405 1.811467,3.093469 0.697042,1.063314 1.624732,2.367525 2.411307,3.371808 0.388741,0.496336 0.802683,0.972407 1.204025,1.45861 0.880794,0.941967 1.572996,1.764643 2.621777,2.540468 1.120798,0.8291 2.800716,1.742 4.07597,2.268246 2.043278,0.843179 3.274689,1.089865 5.411735,1.652716 2.789063,0.558425 5.633672,0.95069 8.485098,0.715496 1.02411,-0.08447 2.044142,-0.234073 3.051975,-0.434593 3.225174,-0.641684 3.942403,-1.050814 7.129826,-2.212444 1.331859,-0.704228 2.697328,-1.348266 3.995578,-2.112683 0.924012,-0.544063 1.793152,-1.177738 2.6614,-1.806983 2.66043,-1.928092 4.155634,-3.082985 6.457875,-5.431173 2.177511,-2.220968 3.365151,-3.836185 5.275028,-6.239197 3.25543,-4.302692 6.030468,-8.931327 8.983536,-13.438486 0.361551,-0.473826 0.678266,-0.985495 1.084651,-1.421478 0.888942,-0.953686 1.873868,-1.641901 3.010314,-2.26714 1.034418,-0.569107 2.076908,-1.129059 3.157194,-1.605385 0.882974,-0.389326 2.37794,-0.69951 3.323527,-0.922525 1.196943,-0.18568 2.004361,-0.346406 3.223659,-0.389513 0.754222,-0.02667 1.509472,-0.0052 2.264069,0.0069 1.527242,0.02446 3.477951,0.08534 4.998502,0.228382 0.859813,0.08089 1.714099,0.212479 2.571149,0.318718 3.344498,0.518946 6.636706,1.383732 9.788116,2.620567 1.73951,0.682708 2.27274,0.969685 3.91994,1.753045 1.66137,0.884021 3.25821,1.893046 4.77584,3.006027 1.37348,1.007267 2.68951,2.099853 4.01815,3.164944 1.55137,1.217041 3.01268,2.542847 4.41702,3.925504 1.28885,1.364977 2.40937,2.877472 3.6091,4.320006 0.64861,0.763541 1.40538,1.4157 2.16772,2.059961 0,0 -1.56202,0.974041 -1.56202,0.974041 l 0,0 c -0.76249,-0.659556 -1.52379,-1.322959 -2.18687,-2.086235 -1.17827,-1.453581 -2.32009,-2.944459 -3.62408,-4.289299 -1.37655,-1.389348 -2.809,-2.720524 -4.3188,-3.965144 -2.74078,-2.278214 -5.53733,-4.521855 -8.7143,-6.173729 -1.58003,-0.772382 -2.19263,-1.107913 -3.8655,-1.769349 -3.135008,-1.239553 -6.416584,-2.102118 -9.749128,-2.602005 -0.858093,-0.101602 -1.713679,-0.227242 -2.574277,-0.304807 -1.523719,-0.137331 -3.48571,-0.20362 -5.015108,-0.201608 -1.858076,0.0024 -3.710245,0.09366 -5.53538,0.465459 -2.161976,0.515386 -1.067011,0.208962 -3.281353,0.931837 -0.0723,0.01776 -0.13917,-0.119606 -0.205886,-0.08657 -1.052089,0.521001 -2.20904,1.355274 -3.021778,2.205492 -0.414991,0.434129 -0.740034,0.946093 -1.110052,1.419139 -1.19495,1.77325 -1.141411,1.676376 -2.364585,3.569715 -0.459772,0.711678 -0.906375,1.431855 -1.370344,2.140805 -1.747367,2.669994 -3.577684,5.2856 -5.483828,7.844653 -1.804285,2.251526 -3.276107,4.193919 -5.30297,6.27369 -0.981438,1.007057 -2.008376,1.97263 -3.083669,2.87879 -1.091424,0.919754 -2.230237,1.786069 -3.40822,2.591992 -4.195716,2.87052 -4.873023,3.0919 -9.051519,5.294602 -3.227325,1.182237 -3.980534,1.608412 -7.247084,2.262956 -1.023009,0.204988 -2.058434,0.360038 -3.09841,0.443804 C 28.27652,52.274666 25.42996,51.831756 22.634625,51.28697 20.658479,50.764729 19.057268,50.408479 17.156586,49.640905 15.973264,49.163031 14.046634,48.133278 12.995829,47.373593 11.880998,46.56762 11.273383,45.807095 10.358977,44.809057 9.961728,44.317306 9.553074,43.834554 9.167231,43.333804 8.40786,42.348287 7.442933,40.978206 6.746812,39.954246 6.450634,39.518584 5.1159471,37.498411 4.7678602,36.931532 4.6505445,36.740476 4.5537011,36.537582 4.4466215,36.340607 c 0,0 1.7095065,-0.934762 1.7095065,-0.934762 z"
     inkscape:connector-curvature="0" />
  <path
     style="fill:#000000;fill-opacity:1;"
     id="path5186"
     d="m 7.492261,42.222091 c 0.290956,0.726832 0.715773,1.38221 1.177086,2.012047 0.248237,0.338921 0.488933,0.685787 0.772053,0.996161 0.369303,0.404854 0.78693,0.762828 1.180395,1.144242 2.375549,1.874554 4.9768,3.496135 7.799564,4.609057 1.975496,0.778871 2.521901,0.845822 4.58846,1.368395 2.677863,0.377126 3.332889,0.568193 6.144084,0.524926 1.237682,-0.01905 2.473459,-0.120185 3.706239,-0.231866 2.537072,-0.229841 4.738771,-0.546868 7.218917,-1.146139 1.213337,-0.293176 2.400641,-0.685185 3.600962,-1.027777 3.250189,-1.09629 6.418318,-2.431704 9.398322,-4.137446 0.503658,-0.288292 0.972038,-0.634409 1.45125,-0.961732 2.995943,-2.04636 2.013366,-1.346709 4.847536,-3.637668 4.052872,-3.49887 7.687393,-7.443139 11.3859,-11.305135 0.473727,-0.492565 0.920724,-1.012313 1.421182,-1.477694 2.639854,-2.454831 5.806109,-4.297769 8.992003,-5.939177 0.605384,-0.3119 1.240951,-0.561361 1.861427,-0.842041 1.34391,-0.520483 2.210356,-0.901532 3.603635,-1.263823 1.851946,-0.481558 2.952438,-0.578693 4.93805,-0.787382 2.467285,-0.259314 3.79572,-0.33332 6.265296,-0.509346 4.416208,-0.282396 8.842738,-0.442585 13.268268,-0.435247 2.8475,0.04519 5.69074,0.222749 8.5354,0.347076 2.36582,0.09732 4.73357,0.130626 7.10114,0.144201 0.72866,-0.02954 1.45429,0.03017 2.17872,0.09708 0,0 -1.53315,1.09242 -1.53315,1.09242 l 0,0 c -0.71286,-0.06613 -1.42645,-0.116605 -2.14328,-0.103691 -2.34888,-0.03482 -4.69701,-0.101538 -7.0444,-0.192438 -2.83663,-0.118087 -5.67101,-0.291702 -8.50948,-0.357351 -4.36962,-0.02509 -8.74057,0.06158 -13.102788,0.329448 -3.08224,0.218954 -6.177022,0.410254 -9.224515,0.952841 -1.953808,0.347863 -3.838726,0.970614 -5.662965,1.742002 -0.613821,0.27974 -1.224272,0.566996 -1.841464,0.839219 -0.157249,0.06936 -0.331822,0.100191 -0.481179,0.185223 -2.618147,1.490579 -5.070123,3.301762 -7.094977,5.542775 -1.787,1.847976 -3.559794,3.708985 -5.361529,5.542691 -1.342032,1.365845 -2.552145,2.611151 -3.957533,3.910216 -0.702159,0.649038 -1.429579,1.270203 -2.144368,1.905305 -0.788138,0.642133 -1.552429,1.3147 -2.364414,1.926401 -0.81126,0.611154 -1.646621,1.191487 -2.501798,1.739508 -1.339544,0.858417 -2.698258,1.688113 -4.079382,2.477895 -2.964173,1.695033 -6.133327,2.985294 -9.364434,4.071474 -1.204873,0.340985 -2.396865,0.731297 -3.614619,1.022955 -2.594931,0.621498 -4.575579,0.886449 -7.225056,1.126862 -1.250918,0.113507 -2.503921,0.226243 -3.759704,0.252485 -2.848342,0.05952 -3.539721,-0.128255 -6.261132,-0.483886 -2.075048,-0.527395 -2.633778,-0.597361 -4.616403,-1.383746 -2.848893,-1.129979 -5.44631,-2.8005 -7.905283,-4.60937 C 8.721212,46.912483 8.28303,46.558548 7.895043,46.153372 7.601951,45.847295 7.358975,45.496834 7.096592,45.164056 6.605055,44.540645 6.119332,43.917474 5.8004562,43.185378 c 0,0 1.6918048,-0.963287 1.6918048,-0.963287 z"
     inkscape:connector-curvature="0" />
  <path
     style="fill:#000000;fill-opacity:1;"
     id="path5188"
     d="m 10.006933,52.782433 c 0.259904,0.356737 0.508233,0.722201 0.779711,1.070212 2.060611,2.641531 4.382729,5.098607 6.917944,7.289478 0.672407,0.581079 1.381282,1.118568 2.071923,1.677852 1.432225,0.979634 2.437986,1.775088 4.035266,2.460897 1.395967,0.599372 2.759917,0.917446 4.27853,0.972647 1.869879,0.06797 2.615472,-0.202042 4.436614,-0.57874 0.748036,-0.248962 1.507112,-0.466928 2.244108,-0.746885 1.388213,-0.527331 3.060846,-1.326792 4.373267,-2.01711 0.670209,-0.352522 1.335536,-0.715787 1.982842,-1.108784 0.206021,-0.125081 0.376399,-0.301473 0.571982,-0.442317 0.702531,-0.505908 1.414615,-0.998416 2.121922,-1.497624 3.797816,-2.796821 7.46373,-5.782895 10.91237,-9.002645 0.751815,-0.701916 1.484034,-1.424533 2.226051,-2.1368 0.758218,-0.753002 1.522707,-1.499741 2.274654,-2.259005 1.705008,-1.721601 3.384062,-3.468713 5.077207,-5.201983 2.646937,-2.709664 5.29849,-5.414376 7.960565,-8.109171 2.004121,-2.009683 3.966067,-4.061188 5.973953,-6.067141 0.592801,-0.59223 1.775185,-1.754119 2.435483,-2.356013 0.34275,-0.312433 0.69866,-0.610116 1.047991,-0.915174 2.561904,-2.088348 5.426906,-3.757737 8.31339,-5.350088 0.50438,-0.278246 1.024992,-0.525994 1.537488,-0.788991 1.646059,-0.777096 3.330247,-1.472973 5.030268,-2.122733 0.50541,-0.193169 1.00935,-0.391494 1.52328,-0.560685 1.08276,-0.356454 2.033078,-0.576374 3.134728,-0.854603 3.32056,-0.653973 6.70077,-0.954998 10.07657,-1.136547 3.41715,-0.186606 6.83643,-0.125874 10.2513,0.05971 3.63789,0.176579 7.1968,0.949118 10.71586,1.838994 1.41339,0.327593 2.79271,0.771305 4.16627,1.233132 0,0 -1.48072,1.003609 -1.48072,1.003609 l 0,0 c -1.35941,-0.463921 -2.72626,-0.901508 -4.12172,-1.247162 -1.36903,-0.352553 -1.97337,-0.52339 -3.37209,-0.819984 -2.40727,-0.510455 -4.84655,-0.864094 -7.3045,-1.004541 -1.60424,-0.07682 -2.04674,-0.110133 -3.62877,-0.139604 -2.2126,-0.04122 -4.42541,0.02146 -6.63602,0.112374 -3.37228,0.187522 -6.7518,0.473397 -10.062598,1.168506 -1.25392,0.318673 -1.88082,0.454684 -3.12063,0.86672 -0.50636,0.168284 -1.004612,0.360278 -1.5032,0.550366 -1.701211,0.648592 -3.383706,1.350539 -5.024552,2.140338 -0.512091,0.265491 -1.021379,0.536462 -1.536274,0.796475 -0.007,0.0035 0.01153,-0.02705 0.0047,-0.02308 -1.849015,1.082049 -3.642839,2.259064 -5.310618,3.607334 -0.355977,0.305297 -0.717925,0.603767 -1.067932,0.91589 -3.027522,2.699822 -5.778569,5.693926 -8.677128,8.526893 -2.670941,2.690701 -5.328908,5.393418 -7.971304,8.112198 -1.672748,1.721103 -3.323714,3.463401 -5.006102,5.175083 -0.745634,0.758617 -1.505402,1.503212 -2.258103,2.254818 -0.731913,0.709868 -1.452738,1.431349 -2.19574,2.129602 -3.431694,3.225015 -7.100066,6.193634 -10.873106,9.007515 -0.696986,0.498187 -1.373056,1.027018 -2.090957,1.494561 -3.016291,1.964401 -6.385786,3.915272 -9.775458,5.181045 -0.744334,0.27795 -1.510774,0.492665 -2.266161,0.738998 -1.840591,0.364102 -2.592259,0.630582 -4.478892,0.540641 -1.513883,-0.07217 -2.917824,-0.416212 -4.303023,-1.029516 -1.578101,-0.698711 -2.599777,-1.525017 -4.00798,-2.514628 -0.687868,-0.564814 -1.392799,-1.109466 -2.063605,-1.694443 -2.8855,-2.5163 -5.48882,-5.330357 -7.985763,-8.225949 0,0 1.646662,-0.973939 1.646662,-0.973939 z"
     inkscape:connector-curvature="0" />
  <path
     style="fill:#000000;fill-opacity:1;"
     id="path5190"
     d="m 4.9491643,19.529983 c 0.1384654,0.186073 0.2698466,0.377757 0.4153963,0.558217 0.2836913,0.351737 1.6909081,1.962579 1.7890641,2.074013 1.4573082,1.654437 2.9498333,3.272863 4.4552593,4.882399 3.854744,3.977473 8.113289,7.528132 12.448787,10.951924 3.538082,2.687566 7.210605,5.187656 10.918105,7.628351 3.205472,2.047597 6.478517,4.008546 9.9274,5.612021 0.52109,0.242269 1.052143,0.461999 1.578215,0.692999 2.31434,1.011775 4.787768,1.477779 7.294399,1.626182 0.608235,0.03601 1.217908,0.04009 1.826861,0.06013 1.807741,-0.0016 3.612224,-0.10339 5.411977,-0.26772 0.480461,-0.04387 0.962414,-0.07713 1.440098,-0.145282 1.15973,-0.165456 1.738992,-0.335211 2.867583,-0.610542 1.080732,-0.432718 1.847693,-0.666468 2.814173,-1.365815 0.05862,-0.04242 -0.05191,-0.166316 -0.0017,-0.218652 0.50265,-0.524305 1.096939,-0.951664 1.613216,-1.462253 1.569678,-1.552392 2.117844,-2.316761 3.555848,-4.064686 4.338475,-5.578142 8.119057,-11.568718 11.91387,-17.529666 0.646999,-0.984154 1.27441,-1.981764 1.940996,-2.952462 0.669215,-0.974525 1.369381,-1.927015 2.065585,-2.882014 1.342902,-1.842086 2.590814,-3.522993 4.063575,-5.264719 1.761787,-2.083536 2.792415,-3.10551 4.656608,-5.057254 1.666094,-1.608354 2.50175,-2.502488 4.30522,-3.9134526 2.1925,-1.7153201 4.73235,-3.1574706 7.23048,-4.3439144 0.52221,-0.2480123 1.08255,-0.4038877 1.62381,-0.6058315 1.44386,-0.4236635 2.92525,-0.8533271 4.44146,-0.8728519 0.65367,-0.00842 0.7662,0.031755 1.39116,0.1228071 0.79062,0.1696569 1.53159,0.5052654 2.28112,0.8002843 0.66017,0.259845 0.81832,0.3092333 1.49348,0.5485112 2.20489,0.6827077 4.49197,1.0337783 6.74596,1.506843 0,0 -1.48959,1.0478108 -1.48959,1.0478108 l 0,0 c -0.43541,-0.091476 -0.86982,-0.1880757 -1.30625,-0.2744196 -1.84448,-0.3649015 -3.71735,-0.6272814 -5.51135,-1.212606 -0.59935,-0.2115684 -0.92058,-0.3215664 -1.51301,-0.5439656 -0.56156,-0.2108121 -1.12004,-0.4537751 -1.69628,-0.6227269 -0.18513,-0.054277 -0.37459,-0.092115 -0.56188,-0.1381718 -0.61103,-0.082075 -0.71158,-0.1179645 -1.35071,-0.105874 -1.47186,0.027844 -2.91279,0.4232983 -4.31384,0.843452 -0.52905,0.1988465 -1.04825,0.4268964 -1.58717,0.5965397 -0.0994,0.031271 -0.21936,-0.046299 -0.31213,0.00134 -0.67099,0.3445515 -1.31246,0.7467319 -1.94562,1.158013 -0.72234,0.4692071 -1.43523,0.9556077 -2.11816,1.4816924 -1.82038,1.4022998 -2.69439,2.3227126 -4.376804,3.9251067 -1.982779,2.056977 -2.799237,2.838329 -4.664113,5.045298 -1.32124,1.563607 -2.875146,3.614243 -4.088637,5.266617 -0.698812,0.951551 -1.396575,1.904296 -2.067416,2.876209 -0.671738,0.973212 -1.306388,1.972066 -1.95958,2.958099 -2.027096,3.171159 -4.04866,6.345305 -6.135111,9.477123 -1.041186,1.562848 -2.842365,4.234787 -3.962638,5.777557 -0.553218,0.761855 -1.139395,1.498675 -1.709092,2.248013 -1.401772,1.742736 -1.931265,2.49705 -3.460969,4.050917 -0.502306,0.510239 -0.999708,1.033354 -1.569713,1.464779 -0.787297,0.595887 -3.179106,2.198331 -4.45012,2.794417 -0.458508,0.215034 -0.944914,0.363123 -1.41737,0.544684 -1.084295,0.253951 -1.769086,0.441123 -2.882272,0.590056 -0.470415,0.06293 -0.945109,0.08738 -1.41815,0.125164 -1.797989,0.143599 -3.599505,0.229111 -5.403444,0.237593 -1.520148,-0.04637 -2.061361,-0.0306 -3.548972,-0.197694 C 48.692864,54.234223 46.797322,53.730243 45.012112,52.916953 44.493856,52.67801 43.970845,52.44934 43.457341,52.200125 40.036998,50.540154 36.779136,48.565618 33.558299,46.545491 29.833876,44.132923 26.156206,41.634331 22.668339,38.880106 18.360737,35.400783 14.089039,31.854003 10.159875,27.936746 8.6524601,26.323289 7.1655151,24.689906 5.6451855,23.088846 5.2485222,22.671119 4.8422157,22.262825 4.4456643,21.844989 3.8674426,21.235733 3.7665561,21.112058 3.2660229,20.542731 c 0,0 1.6831414,-1.012748 1.6831414,-1.012748 z"
     inkscape:connector-curvature="0" />
  <path
     sodipodi:type="arc"
     style="fill:#000000;fill-opacity:1;"
     id="path5194"
     sodipodi:cx="5.1228814"
     sodipodi:cy="45.896187"
     sodipodi:rx="12.084745"
     sodipodi:ry="19.637712"
     d="m 17.207627,45.896187 a 12.084745,19.637712 0 1 1 -24.169491,0 12.084745,19.637712 0 1 1 24.169491,0 z"
     transform="matrix(1,0,0,1.1137124,6.9618644,-14.939303)" />
</svg>
